<?xml version="1.0" standalone="no"?>
<!DOCTYPE svg PUBLIC "-//W3C//DTD SVG 20010904//EN"
 "http://www.w3.org/TR/2001/REC-SVG-20010904/DTD/svg10.dtd">
<svg version="1.0" xmlns="http://www.w3.org/2000/svg"
 width="220.000000pt" height="189.000000pt" viewBox="0 0 220.000000 189.000000"
 preserveAspectRatio="xMidYMid meet">

<g transform="translate(0.000000,189.000000) scale(0.100000,-0.100000)"
fill="#000000" stroke="none">
<path d="M926 1525 c-59 -21 -456 -419 -494 -495 -35 -71 -37 -180 -5 -251 72
-159 253 -228 408 -156 51 24 101 69 328 295 254 254 267 269 267 305 0 45
-28 77 -68 77 -22 0 -71 -44 -277 -250 -138 -138 -267 -262 -287 -276 -101
-71 -248 3 -248 123 0 24 5 54 11 66 6 12 124 135 261 273 157 158 248 256
243 263 -17 29 -92 43 -139 26z"/>
<path d="M1301 1529 c-23 -4 -62 -19 -85 -33 -22 -14 -162 -146 -310 -295
-235 -235 -269 -273 -269 -300 0 -41 28 -71 67 -71 27 0 62 31 281 251 138
138 269 262 293 276 57 34 133 30 186 -10 46 -35 88 -35 115 -1 29 36 26 66
-8 103 -58 62 -179 98 -270 80z"/>
<path d="M1608 1197 c-26 -8 -64 -26 -85 -40 -21 -15 -156 -145 -300 -290
-282 -282 -285 -286 -242 -341 14 -18 30 -26 52 -26 29 0 61 29 292 261 143
143 273 267 289 276 76 40 182 5 217 -71 44 -97 31 -118 -258 -408 -268 -268
-266 -265 -185 -288 78 -21 98 -8 334 228 251 252 268 276 268 402 0 90 -27
157 -87 217 -75 75 -195 108 -295 80z"/>
<path d="M1390 706 c-146 -145 -275 -269 -287 -275 -12 -6 -44 -11 -71 -11
-38 0 -59 7 -93 30 -51 35 -91 38 -119 10 -84 -84 102 -219 262 -190 97 18
115 33 401 318 249 249 277 280 277 310 0 42 -30 72 -72 72 -29 0 -61 -29
-298 -264z"/>
</g>
</svg>
